<svg width="9" height="12" viewBox="0 0 9 12" fill="none" xmlns="http://www.w3.org/2000/svg">
<path d="M5.72 11.9999L3.384 7.75994H2.728V11.9999H-0.00800323V0.767944H4.584C5.46933 0.767944 6.22133 0.922611 6.84 1.23194C7.46933 1.54128 7.93866 1.96794 8.248 2.51194C8.55733 3.04528 8.712 3.64261 8.712 4.30394C8.712 5.05061 8.49866 5.71728 8.072 6.30394C7.656 6.89061 7.03733 7.30661 6.216 7.55194L8.808 11.9999H5.72ZM2.728 5.82394H4.424C4.92533 5.82394 5.29866 5.70128 5.544 5.45594C5.8 5.21061 5.928 4.86394 5.928 4.41594C5.928 3.98928 5.8 3.65328 5.544 3.40794C5.29866 3.16261 4.92533 3.03994 4.424 3.03994H2.728V5.82394Z" fill="#C3BEF7"/>
</svg>
