<svg width="52" height="18" viewBox="0 0 52 18" fill="none" xmlns="http://www.w3.org/2000/svg">
<path d="M2.344 5.51201C2.632 5.04268 3.00533 4.67468 3.464 4.40801C3.93333 4.14134 4.46667 4.00801 5.064 4.00801V6.36001H4.472C3.768 6.36001 3.23467 6.52534 2.872 6.85601C2.52 7.18668 2.344 7.76268 2.344 8.58401V13H0.104V4.13601H2.344V5.51201Z" fill="#C3BEF7"/>
<path d="M14.8128 8.37601C14.8128 8.69601 14.7914 8.98401 14.7488 9.24001H8.26875C8.32208 9.88001 8.54608 10.3813 8.94075 10.744C9.33542 11.1067 9.82075 11.288 10.3968 11.288C11.2288 11.288 11.8208 10.9307 12.1728 10.216H14.5888C14.3328 11.0693 13.8421 11.7733 13.1168 12.328C12.3914 12.872 11.5007 13.144 10.4447 13.144C9.59142 13.144 8.82342 12.9573 8.14075 12.584C7.46875 12.2 6.94075 11.6613 6.55675 10.968C6.18342 10.2747 5.99675 9.47468 5.99675 8.56801C5.99675 7.65068 6.18342 6.84534 6.55675 6.15201C6.93008 5.45868 7.45275 4.92534 8.12475 4.55201C8.79675 4.17868 9.57008 3.99201 10.4447 3.99201C11.2874 3.99201 12.0394 4.17334 12.7008 4.53601C13.3728 4.89868 13.8901 5.41601 14.2528 6.08801C14.6261 6.74934 14.8128 7.51201 14.8128 8.37601ZM12.4928 7.73601C12.4821 7.16001 12.2741 6.70134 11.8687 6.36001C11.4634 6.00801 10.9674 5.83201 10.3808 5.83201C9.82608 5.83201 9.35675 6.00268 8.97275 6.34401C8.59942 6.67468 8.37008 7.13868 8.28475 7.73601H12.4928Z" fill="#C3BEF7"/>
<path d="M18.6877 5.41601C18.9757 5.01068 19.3704 4.67468 19.8717 4.40801C20.3837 4.13068 20.9651 3.99201 21.6157 3.99201C22.3731 3.99201 23.0557 4.17868 23.6637 4.55201C24.2824 4.92534 24.7678 5.45868 25.1198 6.15201C25.4824 6.83468 25.6637 7.62934 25.6637 8.53601C25.6637 9.44268 25.4824 10.248 25.1198 10.952C24.7678 11.6453 24.2824 12.184 23.6637 12.568C23.0557 12.952 22.3731 13.144 21.6157 13.144C20.9651 13.144 20.3891 13.0107 19.8878 12.744C19.3971 12.4773 18.9971 12.1413 18.6877 11.736V17.224H16.4478V4.13601H18.6877V5.41601ZM23.3758 8.53601C23.3758 8.00268 23.2638 7.54401 23.0398 7.16001C22.8264 6.76534 22.5384 6.46668 22.1758 6.26401C21.8238 6.06134 21.4398 5.96001 21.0238 5.96001C20.6184 5.96001 20.2344 6.06668 19.8717 6.28001C19.5197 6.48268 19.2317 6.78134 19.0077 7.17601C18.7944 7.57068 18.6877 8.03468 18.6877 8.56801C18.6877 9.10134 18.7944 9.56534 19.0077 9.96001C19.2317 10.3547 19.5197 10.6587 19.8717 10.872C20.2344 11.0747 20.6184 11.176 21.0238 11.176C21.4398 11.176 21.8238 11.0693 22.1758 10.856C22.5384 10.6427 22.8264 10.3387 23.0398 9.94401C23.2638 9.54934 23.3758 9.08001 23.3758 8.53601Z" fill="#C3BEF7"/>
<path d="M31.2275 13.144C30.3742 13.144 29.6062 12.9573 28.9235 12.584C28.2408 12.2 27.7022 11.6613 27.3075 10.968C26.9235 10.2747 26.7315 9.47468 26.7315 8.56801C26.7315 7.66134 26.9288 6.86134 27.3235 6.16801C27.7288 5.47468 28.2782 4.94134 28.9715 4.56801C29.6648 4.18401 30.4382 3.99201 31.2915 3.99201C32.1448 3.99201 32.9182 4.18401 33.6115 4.56801C34.3048 4.94134 34.8488 5.47468 35.2435 6.16801C35.6488 6.86134 35.8515 7.66134 35.8515 8.56801C35.8515 9.47468 35.6435 10.2747 35.2275 10.968C34.8222 11.6613 34.2675 12.2 33.5635 12.584C32.8702 12.9573 32.0915 13.144 31.2275 13.144ZM31.2275 11.192C31.6328 11.192 32.0115 11.096 32.3635 10.904C32.7262 10.7013 33.0142 10.4027 33.2275 10.008C33.4408 9.61334 33.5475 9.13334 33.5475 8.56801C33.5475 7.72534 33.3235 7.08001 32.8755 6.63201C32.4382 6.17334 31.8995 5.94401 31.2595 5.94401C30.6195 5.94401 30.0808 6.17334 29.6435 6.63201C29.2168 7.08001 29.0035 7.72534 29.0035 8.56801C29.0035 9.41068 29.2115 10.0613 29.6275 10.52C30.0542 10.968 30.5875 11.192 31.2275 11.192Z" fill="#C3BEF7"/>
<path d="M41.5586 5.97601H40.0066V13H37.7346V5.97601H36.7266V4.13601H37.7346V3.68801C37.7346 2.60001 38.044 1.80001 38.6626 1.28801C39.2813 0.776009 40.2146 0.536009 41.4626 0.568009V2.45601C40.9186 2.44534 40.54 2.53601 40.3266 2.72801C40.1133 2.92001 40.0066 3.26668 40.0066 3.76801V4.13601H41.5586V5.97601Z" fill="#C3BEF7"/>
<path d="M51.4902 4.13601L46.0023 17.192H43.6183L45.5382 12.776L41.9863 4.13601H44.4982L46.7863 10.328L49.1063 4.13601H51.4902Z" fill="#C3BEF7"/>
</svg>
